<?xml version="1.0" encoding="utf-8"?>
<!-- Generator: Adobe Illustrator 24.1.1, SVG Export Plug-In . SVG Version: 6.00 Build 0)  -->
<svg version="1.1" id="Layer_1" xmlns="http://www.w3.org/2000/svg" xmlns:xlink="http://www.w3.org/1999/xlink" x="0px" y="0px"
	 viewBox="0 0 512 512" style="enable-background:new 0 0 512 512;" xml:space="preserve">
<style type="text/css">
	.st0{fill:#3498DB;}
	.st1{fill:#FFFFFF;}
</style>
<g id="XMLID_1_">
	<path id="XMLID_3_" class="st0" d="M25.2,0h461.6c14,0,25.2,11.2,25.2,25.2v461.6c0,14-11.2,25.2-25.2,25.2H25.2
		C11.2,512,0,500.8,0,486.8V25.2C0,11.2,11.2,0,25.2,0z"/>
	<path id="XMLID_8_" class="st1" d="M256.5,286.3l148.3-128.7H108.2L256.5,286.3z M216.4,272.3l40.1,32.6l39.2-32.6l108.2,93.3
		H108.2L216.4,272.3z M98.9,355.3V167.9L207,261.1L98.9,355.3z M414.1,355.3V167.9l-108.2,93.3L414.1,355.3z"/>
</g>
</svg>
